<?xml version="1.0" encoding="UTF-8"?>
<!DOCTYPE svg PUBLIC "-//W3C//DTD SVG 1.1//EN" "http://www.w3.org/Graphics/SVG/1.1/DTD/svg11.dtd">
<!-- Creator: CorelDRAW X6 -->
<svg xmlns="http://www.w3.org/2000/svg" xml:space="preserve" width="190.43mm" height="139.126mm" version="1.1" style="shape-rendering:geometricPrecision; text-rendering:geometricPrecision; image-rendering:optimizeQuality; fill-rule:evenodd; clip-rule:evenodd"
viewBox="0 0 19043 13913"
 xmlns:xlink="http://www.w3.org/1999/xlink">
 <defs>
  <style type="text/css">
   <![CDATA[
    .fil2 {fill:none}
    .fil5 {fill:#221F20}
    .fil4 {fill:#BBBDBF}
    .fil3 {fill:#FEFEFE}
    .fil7 {fill:#C7927A}
    .fil1 {fill:#C7D8DF}
    .fil8 {fill:#D89473}
    .fil0 {fill:#DAEDF4}
    .fil6 {fill:#ECB08E}
   ]]>
  </style>
 </defs>
 <g id="Layer_x0020_1">
  <metadata id="CorelCorpID_0Corel-Layer"/>
  <path class="fil0" d="M5035 13913c0,0 -2460,-243 -3042,-1883 -582,-1640 688,-1601 344,-3043 -344,-1442 -2359,-2196 -1429,-2990 930,-794 2249,-463 2408,-2183 159,-1720 -576,-3493 1213,-3546 1789,-53 3100,1111 6937,715 3836,-397 6218,-1482 6562,185 344,1667 -2603,8334 -794,9075 1810,741 2249,1728 265,2699 -1984,970 -3490,970 -3490,970l-8972 0z"/>
  <g id="_1171389504">
   <polygon class="fil1" points="7680,10411 14133,10411 14133,1923 7680,1923 "/>
   <g>
    <polygon class="fil1" points="8487,2634 13248,2634 13248,2761 8487,2761 "/>
    <polygon class="fil1" points="8487,2906 13248,2906 13248,3034 8487,3034 "/>
    <polygon class="fil1" points="8487,3179 13248,3179 13248,3306 8487,3306 "/>
    <polygon class="fil1" points="8487,3451 13248,3451 13248,3579 8487,3579 "/>
    <polygon class="fil1" points="8487,3724 13248,3724 13248,3851 8487,3851 "/>
    <polygon class="fil1" points="8487,3996 13248,3996 13248,4124 8487,4124 "/>
    <polygon class="fil1" points="8487,4269 13248,4269 13248,4396 8487,4396 "/>
    <polygon class="fil1" points="8487,4541 13248,4541 13248,4669 8487,4669 "/>
    <polygon class="fil1" points="8487,4814 13248,4814 13248,4941 8487,4941 "/>
    <polygon class="fil1" points="8487,5086 13248,5086 13248,5214 8487,5214 "/>
    <polygon class="fil1" points="8487,5359 13248,5359 13248,5487 8487,5487 "/>
    <polygon class="fil1" points="8487,5631 13248,5631 13248,5759 8487,5759 "/>
    <polygon class="fil1" points="8487,5904 13248,5904 13248,6032 8487,6032 "/>
    <polygon class="fil1" points="8487,6177 13248,6177 13248,6304 8487,6304 "/>
    <polygon class="fil1" points="8487,6449 12172,6449 12172,6577 8487,6577 "/>
    <polygon class="fil1" points="8487,6722 12172,6722 12172,6849 8487,6849 "/>
   </g>
   <polygon class="fil1" points="5197,13913 5853,10481 7615,10759 7615,13913 "/>
   <path class="fil1" d="M7396 10950c73,0 132,59 132,132 0,73 -59,132 -132,132 -73,0 -132,-59 -132,-132 0,-73 59,-132 132,-132z"/>
   <path class="fil1" d="M7396 11379c73,0 132,59 132,132 0,73 -59,132 -132,132 -73,0 -132,-59 -132,-132 0,-73 59,-132 132,-132z"/>
   <polygon class="fil1" points="5901,10488 5997,10126 7615,10418 7563,10750 "/>
   <path class="fil1" d="M7680 8255c0,-616 0,-1233 0,-1849 -284,40 -490,240 -589,657 -40,48 -81,96 -121,143 -261,23 -522,57 -764,272 -241,735 -185,1871 -151,2658 508,92 1015,183 1523,275 234,-377 740,-742 908,-984 270,-535 968,-1496 905,-1576 0,-142 -187,-152 -248,-332 -43,-93 26,-244 -128,-278 -266,29 -398,186 -311,553 71,290 -351,536 -504,631 -57,35 -180,43 -253,17 -99,-36 -195,-119 -267,-188z"/>
   <path class="fil1" d="M6970 7206c-95,8 -189,18 -283,37 -29,90 -64,213 -55,253 14,66 241,-13 338,-291z"/>
   <path class="fil1" d="M7463 10391l116 21c234,-377 740,-742 908,-984 270,-535 968,-1496 905,-1576 0,-142 -187,-152 -248,-332 -43,-93 26,-244 -128,-278 0,0 -34,99 35,277 69,178 129,140 173,256 44,115 67,270 -108,480 -175,210 -466,683 -523,815 -57,132 -86,187 -198,326 -112,139 -650,585 -743,730 -48,76 -123,162 -187,264z"/>
   <path class="fil1" d="M7680 8255l0 -1057 -152 -217 87 262c0,0 -260,370 -272,506 -12,135 38,539 494,660l75 20c-7,-3 -15,-7 -22,-11l0 0 0 0c-79,-42 -153,-107 -210,-163zm353 203c-3,0 -7,0 -10,-1 43,11 36,8 10,1z"/>
   <path class="fil1" d="M7680 8255l0 -925c0,0 -153,236 -185,328 -32,92 -88,485 185,597z"/>
  </g>
  <rect class="fil2" transform="matrix(2.72002E-013 -10.2702 10.2702 2.72001E-013 -0.00113896 13912.6)" width="1355" height="1854"/>
  <g id="_1171383776">
   <rect class="fil3" x="7555" y="1737" width="6453" height="8489"/>
   <g>
    <rect class="fil4" x="8361" y="2449" width="4762" height="128"/>
    <rect class="fil4" x="8361" y="2721" width="4762" height="128"/>
    <rect class="fil4" x="8361" y="2994" width="4762" height="128"/>
    <rect class="fil4" x="8361" y="3266" width="4762" height="128"/>
    <rect class="fil4" x="8361" y="3539" width="4762" height="128"/>
    <rect class="fil4" x="8361" y="3811" width="4762" height="128"/>
    <rect class="fil4" x="8361" y="4084" width="4762" height="128"/>
    <rect class="fil4" x="8361" y="4356" width="4762" height="128"/>
    <rect class="fil4" x="8361" y="4629" width="4762" height="128"/>
    <rect class="fil4" x="8361" y="4901" width="4762" height="128"/>
    <rect class="fil4" x="8361" y="5174" width="4762" height="128"/>
    <rect class="fil4" x="8361" y="5446" width="4762" height="128"/>
    <rect class="fil4" x="8361" y="5719" width="4762" height="128"/>
    <rect class="fil4" x="8361" y="5991" width="4762" height="128"/>
    <rect class="fil4" x="8361" y="6264" width="3685" height="128"/>
    <rect class="fil4" x="8361" y="6536" width="3685" height="128"/>
   </g>
   <polygon class="fil5" points="5035,13913 5727,10296 7490,10573 7490,13913 "/>
   <circle class="fil3" cx="7270" cy="10897" r="132"/>
   <circle class="fil3" cx="7270" cy="11326" r="132"/>
   <polygon class="fil3" points="5775,10303 5872,9941 7490,10233 7437,10565 "/>
   <path class="fil6" d="M7555 8070c0,-616 0,-1233 0,-1849 -284,40 -490,240 -589,657 -40,48 -81,96 -121,143 -261,23 -522,57 -764,272 -241,735 -185,1871 -151,2658 508,92 1015,183 1523,275 234,-377 740,-742 908,-984 270,-535 968,-1496 905,-1576 0,-142 -187,-152 -248,-332 -43,-93 26,-244 -128,-278 -266,29 -398,186 -311,553 71,290 -351,536 -504,631 -57,35 -180,43 -253,17 -99,-36 -195,-119 -267,-188z"/>
   <path class="fil7" d="M6845 7021c-95,8 -189,18 -283,37 -29,90 -64,213 -55,253 14,66 241,-13 338,-291z"/>
   <path class="fil7" d="M7337 10205l116 21c234,-377 740,-742 908,-984 270,-535 968,-1496 905,-1576 0,-142 -187,-152 -248,-332 -43,-93 26,-244 -128,-278 0,0 -34,99 35,277 69,178 129,140 173,256 44,115 67,270 -108,480 -175,210 -466,683 -523,815 -57,132 -86,187 -198,326 -112,139 -650,585 -743,730 -48,76 -123,162 -187,264z"/>
   <path class="fil7" d="M7555 8070l0 -1057 -152 -217 87 262c0,0 -260,370 -272,506 -12,135 38,539 494,660l75 20c-7,-3 -15,-7 -22,-11l0 0 0 0c-79,-42 -153,-107 -210,-163zm353 203c-3,0 -7,0 -10,-1 43,11 36,8 10,1z"/>
   <path class="fil8" d="M7555 8070l0 -925c0,0 -153,236 -185,328 -32,92 -88,485 185,597z"/>
  </g>
 </g>
</svg>
